<svg xmlns="http://www.w3.org/2000/svg" viewBox="0 0 512 512">
  <defs>
    <linearGradient id="bg" x1="0" y1="0" x2="1" y2="1">
      <stop offset="0%" stop-color="#ffb347"/>
      <stop offset="100%" stop-color="#ff5e00"/>
    </linearGradient>
    <linearGradient id="ball" x1="0" y1="0" x2="1" y2="1">
      <stop offset="0%" stop-color="#fff7d6"/>
      <stop offset="100%" stop-color="#ffd700"/>
    </linearGradient>
  </defs>
  <rect width="512" height="512" rx="120" fill="#0d0d1a"/>
  <rect x="24" y="24" width="464" height="464" rx="104" fill="url(#bg)"/>
  <circle cx="256" cy="214" r="122" fill="url(#ball)"/>
  <path d="M154 154c44 20 75 56 94 115M358 154c-44 20-75 56-94 115M134 231c52-7 108 5 163 42M378 231c-52-7-108 5-163 42M171 306c57 12 110 41 151 92M341 306c-57 12-110 41-151 92" fill="none" stroke="#0d0d1a" stroke-linecap="round" stroke-width="16"/>
  <path d="M124 394h264" fill="none" stroke="#ffffff" stroke-linecap="round" stroke-width="18" opacity=".18"/>
  <text x="256" y="434" fill="#ffffff" font-family="Barlow Condensed, Arial, sans-serif" font-size="72" font-weight="700" text-anchor="middle">KOTC</text>
</svg>
